{"title":"Alice.In.Wonderland.2010.1080p.BluRay.DTS.x264-LTT","uid":5570176,"size":6368318803,"categoryP":"video","categoryS":"hd___movies","magnet":"?xt=urn:btih:4a9518398d6310a4e50f1c08823fdc2fa85a2f9f&amp;dn=Alice.In.Wonderland.2010.1080p.BluRay.DTS.x264-LTT&amp;tr=udp%3A%2F%2Ftracker.openbittorrent.com%3A80&amp;tr=udp%3A%2F%2Fopen.demonii.com%3A1337&amp;tr=udp%3A%2F%2Ftracker.coppersurfer.tk%3A6969&amp;tr=udp%3A%2F%2Fexodus.desync.com%3A6969","seeders":1,"leechers":0,"uploader":"Ltt_01","files":2,"time":1274229206,"description":"Alice.In.Wonderland.2010.1080p.BluRay.mkv\n*****************************************\n\nTiTLE......  Alice in Wonderland\nYEAR.......  2010\nGENRE......  Adventure | Family | Fantasy\niMDB RATE..  User Rating: 6.8/10 (43,687 votes)\niMDB URL... &lt;a href=&quot; http://www.imdb.com/title/tt1014759/&quot; rel=&quot;nofollow&quot; target=&quot;_NEW&quot;&gt; http://www.imdb.com/title/tt1014759/&lt;/a&gt;\n*************************************************\n\nVideo\nDuration                         : 1h 48mn\nOverall bit rate                 : 7 820 Kbps\nWidth                            : 1 920 pixels\nHeight                           : 1 080 pixels\nDisplay aspect ratio             : 16:9\nFrame rate                       : 23.976 fps\nStream size                      : 4.66 GiB (79%)\n\nAudio\nFormat                           : DTS\nBit rate                         : 1 510 Kbps\nChannel(s)                       : 6 channels\nChannel positions                : Front: L C R, Surround: L R, LFE\nSampling rate                    : 48.0 KHz\nStream size                      : 1.15 GiB (19%)\nLanguage                         : English\n\nSubtitles: English, Dutch, French, Swedish\n******************************************\n\n\n","torrent":{"xt":"urn:btih:4a9518398d6310a4e50f1c08823fdc2fa85a2f9f","amp;dn":"Alice.In.Wonderland.2010.1080p.BluRay.DTS.x264-LTT","amp;tr":["udp%3A%2F%2Ftracker.openbittorrent.com%3A80","udp%3A%2F%2Fopen.demonii.com%3A1337","udp%3A%2F%2Ftracker.coppersurfer.tk%3A6969","udp%3A%2F%2Fexodus.desync.com%3A6969"],"infoHash":"4a9518398d6310a4e50f1c08823fdc2fa85a2f9f","infoHashBuffer":{"type":"Buffer","data":[74,149,24,57,141,99,16,164,229,15,28,8,130,63,220,47,168,90,47,159]},"announce":[],"urlList":[]}}